# xmcd
# 
# Track frame offsets:
#     150
#     14172
#     24577
#     40372
#     58225
#     72085
#     85172
#     97257
#     108660
#     122015
#     131245
#     140962
#     151855
#     162395
# 
# Disc length: 2325
# 
# Revision: 1
# Processed by: cddbd v1.5.2PL0 Copyright (c) Steve Scherf et al.
# Submitted via: fre:ac v1.0.31
# 
DISCID=d309130e
DTITLE=Roots of Rhythm - Skinny Legs And All
DYEAR=2001
DGENRE=R&B
TTITLE0=Joe Tex/Skinny Legs and All
TTITLE1=John Lee Hooker/Bigs Legs/Tight Skirt
TTITLE2=Bobby Womack/Woman's Gotta Have It
TTITLE3=The Dramatics/Whatcha See Is whatcha Get
TTITLE4=The Showmen/39-21-46
TTITLE5=Nellie Lutcher and Her Rhythm/Fine Brown Frame
TTITLE6=Julia Lee and Her Boy Friends/King Size Papa
TTITLE7=Archibald/Great Big Eyes
TTITLE8=Helen Humes w/ the Bill Doggett Octet/He May Be Your Man
TTITLE9=Roy Brown/Let the Four Winds Blow
TTITLE10=Little Richard/Long Tall Sally
TTITLE11=Larry Williams/Short Fat Fannie
TTITLE12=Jimmy Soul/If You Wanny Be Happy
TTITLE13=Cornelius Borthers and Sister Rose/Treat Her Like a Lady
EXTD=
EXTT0=
EXTT1=
EXTT2=
EXTT3=
EXTT4=
EXTT5=
EXTT6=
EXTT7=
EXTT8=
EXTT9=
EXTT10=
EXTT11=
EXTT12=
EXTT13=
PLAYORDER=
